<?xml version="1.0" encoding="UTF-8" standalone="no"?>
<svg
   width="66"
   height="66"
   viewBox="0 0 66 66"
   version="1.1"
   id="svg1"
   sodipodi:docname="icon.svg"
   inkscape:version="1.4 (e7c3feb1, 2024-10-09)"
   xml:space="preserve"
   inkscape:export-filename="archive-embed-icon.png"
   inkscape:export-xdpi="96"
   inkscape:export-ydpi="96"
   xmlns:inkscape="http://www.inkscape.org/namespaces/inkscape"
   xmlns:sodipodi="http://sodipodi.sourceforge.net/DTD/sodipodi-0.dtd"
   xmlns="http://www.w3.org/2000/svg"
   xmlns:svg="http://www.w3.org/2000/svg"
   xmlns:rdf="http://www.w3.org/1999/02/22-rdf-syntax-ns#"
   xmlns:cc="http://creativecommons.org/ns#"
   xmlns:dc="http://purl.org/dc/elements/1.1/"><defs
     id="defs1" /><sodipodi:namedview
     id="namedview1"
     pagecolor="#ffffff"
     bordercolor="#000000"
     borderopacity="0.25"
     inkscape:showpageshadow="2"
     inkscape:pageopacity="0.0"
     inkscape:pagecheckerboard="0"
     inkscape:deskcolor="#d1d1d1"
     inkscape:zoom="4.4569155"
     inkscape:cx="26.812265"
     inkscape:cy="22.997968"
     inkscape:window-width="1408"
     inkscape:window-height="782"
     inkscape:window-x="0"
     inkscape:window-y="38"
     inkscape:window-maximized="0"
     inkscape:current-layer="svg1" /><!-- Generator: Sketch 3.8.3 (29802) - http://www.bohemiancoding.com/sketch --><title
     id="title1">wapuu</title><desc
     id="desc1">Created with Sketch.</desc><metadata
     id="metadata1"><rdf:RDF><cc:Work
         rdf:about=""><dc:title>wapuu</dc:title></cc:Work></rdf:RDF></metadata><g
     id="g1"
     transform="translate(3.0884225)"><g
       id="wapuu"
       stroke="none"
       stroke-width="1"
       fill="none"
       fill-rule="evenodd"><path
         d="m 58.25787,3.6551936 c -0.369231,-0.091903 -0.971361,-0.1362581 -3.392308,-0.1362581 -0.781775,0 -1.670414,0.00461 -2.615148,0.00923 -1.066509,0.00532 -2.205089,0.011 -3.341538,0.011 -1.826983,0 -4.385326,-0.013129 -6.205917,-0.1174516 C 39.787101,1.3029677 36.428166,0.17209677 32.711361,0.05996774 24.656805,-0.18664516 17.525325,3.2936129 13.663669,9.2761936 12.35858,10.51671 9.9031953,11.895968 9.2392899,12.043226 c -1.1130177,0.247322 -1.8340828,1.22171 -1.7137278,2.316387 0.086627,0.789161 0.647929,1.675903 1.9004734,2.088226 -0.144497,0.141935 -0.2822485,0.290967 -0.4104142,0.445322 -0.8488757,1.022291 -1.2039053,2.184387 -0.9997633,3.272678 0.041183,0.218225 0.098343,0.426871 0.1711243,0.625225 -1.8362131,3.124 -2.8022486,6.670259 -2.8022486,10.316226 0,0.920807 0.06213,1.837 0.1853255,2.744323 -0.2889941,-0.05003 -0.5794083,-0.07558 -0.8698225,-0.07558 -1.3966864,0 -2.6914793,0.605355 -3.551361,1.660645 -0.9497041,1.166 -1.28272185,2.725871 -0.9376331,4.392194 0.70260355,3.394032 5.8469822,9.115806 9.9489944,10.100129 0.404023,0.09652 0.789941,0.145839 1.146745,0.145839 1.097397,0 2.003787,-0.462355 2.553018,-1.301903 0.17432,-0.266839 0.300355,-0.550001 0.387692,-0.839549 2.799409,1.929613 6.035503,3.12471 9.463669,3.471742 0.742722,2.422129 2.736923,2.825936 3.981302,2.825936 1.875976,0 3.496686,-0.762194 4.652307,-2.167355 0.104379,0.0014 0.209113,0.0025 0.314202,0.0025 0.793136,0 1.778698,-0.05429 2.906272,-0.228161 -3.609231,4.048 -8.823196,6.377516 -12.662485,6.378226 h -0.0011 c -1.618224,0 -3.792071,-0.412677 -4.960118,-2.376355 -1.545444,-2.598129 -4.02284,-4.21229 -6.464734,-4.21229 -2.5650883,0 -4.3473369,1.810032 -4.4343191,4.503613 -0.047219,1.458032 0.7171598,3.043806 2.2107692,4.585226 2.5125439,2.593516 7.3846149,5.210451 12.6063909,5.210451 1.153846,0 2.284615,-0.129161 3.36071,-0.383935 9.253491,-2.19042 17.544497,-9.595194 19.956213,-17.739452 8.832426,-6.744064 8.132307,-25.284387 5.205444,-33.551064 -0.203077,-0.573775 -0.422486,-1.135839 -0.65787,-1.68442 0.356094,0.04116 0.708284,0.06174 1.054793,0.06174 0.809112,0 1.597278,-0.113548 2.343195,-0.337097 C 57.71322,10.916274 59.787303,7.5101773 59.74399,5.6412418 59.7213,4.6547742 59.137633,3.8751936 58.25787,3.6551936"
         id="all-outline"
         fill="#000000" /><path
         d="m 43.152426,25.335129 c -2.849467,-2.553065 -4.813846,-4.122161 -7.638462,-4.706226 -1.899053,-0.392451 -4.165562,0.11 -6.165088,0.553194 -1.515266,0.336387 -2.823906,0.627355 -3.84213,0.519484 -1.563906,-0.164646 -2.803669,-0.987162 -3.156924,-2.096388 -0.248875,-0.781354 -0.18071,-2.03358 1.55929,-3.564 0.723906,-0.636935 1.590178,-1.169193 2.539882,-1.601741 -1.369704,0.0021 -2.723077,-0.261162 -4.023905,-0.951323 -1.68,2.332 -5.943906,4.021387 -7.256095,3.439097 -0.291479,-0.129516 -0.617041,-0.351645 -0.917751,-0.66142 -0.0284,0.022 -0.05468,0.04613 -0.08308,0.06848 0.346153,0.323968 0.59858,0.777807 0.707574,1.308291 0.221183,1.075516 -0.155503,2.226258 -1.007929,3.077871 -0.742012,0.741967 -1.676805,1.167419 -2.564024,1.167419 -0.620592,0 -1.150296,-0.215742 -1.5472189,-0.592581 -1.7552663,2.856807 -2.7742012,6.213226 -2.7742012,9.812 0,1.675549 0.2240236,3.297871 0.6355029,4.843904 1.7616568,1.45129 4.6633132,7.216709 5.2963312,8.663032 0.03444,0.07913 0.07349,0.179193 0.11361,0.294871 3.019526,2.790451 6.953609,4.60758 11.304852,4.943258 -0.05467,-0.719258 -0.03018,-1.48571 -0.005,-2.242581 0.03053,-0.927193 0.06249,-1.886322 -0.05858,-2.674064 -0.09976,-0.648291 -0.266272,-1.343775 -0.442722,-2.080065 -0.657159,-2.745387 -1.402721,-5.857322 1.224142,-7.607387 0.503432,-0.335677 1.050888,-0.506 1.626391,-0.506 2.360237,0 4.505681,2.844387 5.612663,5.007129 1.507455,-2.438806 3.984852,-3.985194 6.930887,-4.283613 1.491835,-0.151516 2.980474,0.04187 4.207456,0.496065 0.432781,-1.573355 0.65503,-3.204194 0.65503,-4.854549 0,-1.974677 -0.313137,-3.916355 -0.930533,-5.772161"
         id="WordPress-blue2"
         fill="#005683" /><path
         d="m 30.929467,20.84571 c -0.537159,0.105387 -1.067574,0.222483 -1.580591,0.336387 -1.515266,0.336387 -2.823906,0.627355 -3.84213,0.519484 -1.563906,-0.164646 -2.803669,-0.987162 -3.156924,-2.096388 -0.248875,-0.781354 -0.18071,-2.03358 1.55929,-3.564 0.02521,-0.022 0.05361,-0.04187 0.07882,-0.06387 -1.120118,-0.365129 -2.299882,-0.598258 -3.521183,-0.680936 -1.930296,1.303323 -4.362604,2.045645 -5.297752,1.630839 -0.291124,-0.129516 -0.616331,-0.351291 -0.916686,-0.66071 -0.02769,0.02306 -0.05538,0.04577 -0.08379,0.06813 0.346154,0.323968 0.598225,0.777807 0.707219,1.307936 0.221183,1.075516 -0.155503,2.226258 -1.007929,3.077871 -0.742012,0.741967 -1.676805,1.167419 -2.564024,1.167419 -0.620947,0 -1.151006,-0.216097 -1.547929,-0.59329 -1.7549112,2.856806 -2.7734911,6.213935 -2.7734911,9.812709 0,1.674129 0.2201183,3.296807 0.6323077,4.841065 1.1815384,0.970484 2.8764494,3.884774 4.0565684,6.138 2.254082,1.433903 4.926745,2.268484 7.796804,2.268484 1.585917,0 3.111125,-0.256904 4.540474,-0.725646 -0.05822,-0.253 -0.118935,-0.509548 -0.182131,-0.773548 -0.657159,-2.745387 -1.402721,-5.857322 1.224142,-7.607387 0.503432,-0.335677 1.050888,-0.506 1.626391,-0.506 1.815266,0 3.500947,1.68229 4.687101,3.443 1.673609,-2.369258 2.660236,-5.258 2.660236,-8.378806 0,-3.381968 -1.157751,-6.491065 -3.094793,-8.960742"
         id="WordPress-blue1"
         fill="#00709C"
         style="fill:#f2f2f2"
         sodipodi:nodetypes="ccccccccccccscsccscccscsc" /><path
         d="m 18.214793,40.972871 c -0.806272,0.05216 -1.462367,0.0057 -2.263669,-0.160387 -0.241775,-2.408291 -0.397633,-5.416613 0.816213,-10.660419 2.205089,5.707935 4.633846,9.893612 4.651243,9.916677 -0.4129,0.196935 -1.668994,0.795903 -3.203787,0.904129 M 14.516805,40.364677 C 8.207574,37.499 7.0494675,30.705968 9.1665089,25.47671 c 0.080592,5.174967 1.5305321,9.209838 5.3502961,14.887967 m 8.539881,-1.277419 C 24.057515,34.776323 25.721183,30.655226 26.7,26.337903 c 0.188876,-0.83458 0.352544,-2.13329 0.05823,-3.581387 2.915858,4.552581 2.581065,11.623807 -3.701539,16.330742 M 10.053728,23.741903 c 2.848047,-4.381193 8.294556,-7.944484 14.272544,-3.568613 -0.04012,-0.0018 -3.832189,0.172097 -1.076095,4.247065 1.489705,2.202129 1.584498,3.968871 0.406154,7.561613 -0.425325,1.771355 -0.553846,2.306096 -0.933727,4.129968 -1.818817,-4.344646 -3.303196,-8.043484 -4.475503,-12.773484 1.03065,-0.151162 2.198343,-0.322549 1.598343,-0.985388 -0.07562,-0.08339 -5.504734,0.454904 -5.556568,0.463775 -0.416805,0.07097 -0.489941,0.561354 -0.490651,0.565967 -0.04331,0.387129 0.02698,0.383226 1.203195,0.312258 0.309941,1.669872 0.451243,2.43242 1.218107,4.869807 -0.553491,2.300419 -1.126509,4.679258 -1.204971,8.362839 -2.473846,-4.921258 -3.464024,-8.33942 -3.652899,-12.612387 0.351124,-0.213259 0.820118,-0.129516 1.130414,-0.447097 0.211598,-0.216807 0.314556,-0.705774 0.05077,-0.762549 -0.935503,-0.201548 -1.649467,0.460936 -2.489112,0.636226 m 8.595976,-6.475451 C 9.2904142,18.038581 3.2130178,32.134548 11.490533,39.51129 19.879882,46.987032 30.244615,37.327613 29.886746,28.365097 29.608757,21.416645 23.852308,17.016645 18.649704,17.266452"
         id="WordPress-logo"
         fill="#ffffff"
         style="display:none"
         sodipodi:insensitive="true" /><path
         d="m 31.812781,42.527065 c -0.0057,-0.02235 -0.01065,-0.044 -0.01633,-0.06671 -0.05077,-0.202258 -0.106864,-0.410548 -0.17006,-0.627 -0.527218,-1.897678 -3.034437,-5.671742 -4.949467,-5.671742 -0.294319,0 -0.568757,0.08764 -0.838935,0.267548 -1.676805,1.117742 -1.338461,3.139613 -0.630177,6.096484 0.175029,0.731323 0.356094,1.487839 0.464733,2.193968 0.141657,0.918677 0.107219,1.945226 0.0742,2.937355 -0.05113,1.540709 -0.104024,3.13429 0.560591,3.820903 0.290769,0.300548 0.743787,0.446742 1.385326,0.446742 0.18568,0 0.360355,-0.01384 0.529349,-0.03513 0.05148,-0.0064 0.100118,-0.01597 0.149822,-0.02413 0.11787,-0.01916 0.231835,-0.04258 0.341539,-0.07097 0.04864,-0.01277 0.09728,-0.0259 0.144497,-0.04045 0.114319,-0.03477 0.223668,-0.07487 0.328757,-0.119225 0.03089,-0.01277 0.06355,-0.02413 0.09373,-0.03761 0.134911,-0.06139 0.263432,-0.129161 0.384142,-0.203678 0.01172,-0.0075 0.02237,-0.01597 0.03408,-0.02342 0.106864,-0.06813 0.207692,-0.140516 0.303195,-0.216807 0.02805,-0.02235 0.05468,-0.04542 0.08201,-0.06848 0.07846,-0.06636 0.153373,-0.135194 0.224379,-0.205807 0.02379,-0.02377 0.04828,-0.04755 0.07136,-0.07168 0.07953,-0.08374 0.154792,-0.169613 0.225088,-0.256903 0.0082,-0.01029 0.0174,-0.01987 0.02521,-0.03016 0.07846,-0.09936 0.150533,-0.200484 0.217634,-0.301968 0.01598,-0.02377 0.02982,-0.0479 0.04473,-0.07132 0.04757,-0.07523 0.09302,-0.150452 0.134912,-0.224968 0.02024,-0.03584 0.03941,-0.07097 0.05822,-0.106451 0.03266,-0.06174 0.06355,-0.122775 0.09266,-0.183452 0.01811,-0.03797 0.03728,-0.07629 0.05432,-0.113903 0.02414,-0.05287 0.04509,-0.103613 0.06639,-0.15471 0.04473,-0.106806 0.08485,-0.210064 0.118225,-0.305161 0.0021,-0.0053 0.0043,-0.011 0.006,-0.01597 0.02343,-0.06813 0.04473,-0.13271 0.0632,-0.192677 0.08059,-0.262226 0.11716,-0.446033 0.122485,-0.476904 0.0053,-0.03052 0.01278,-0.06245 0.02237,-0.09155 0.532189,-1.68371 0.745917,-3.099871 0.312426,-5.184548 -0.03834,-0.184517 -0.08237,-0.37471 -0.130651,-0.569516"
         id="sole-left"
         fill="#ffd200" /><path
         d="m 11.306982,49.010323 v 0 c -0.273372,0 -0.575503,-0.03903 -0.898225,-0.116388 C 6.8069822,48.029548 1.8773964,42.62429 1.2539645,39.613129 0.97526627,38.266516 1.2312426,37.021742 1.9746746,36.109097 c 0.6571597,-0.806194 1.6505325,-1.268549 2.7255621,-1.268549 0.9678106,0 1.9512426,0.363 2.844142,1.049613 1.7534911,1.348033 4.7279293,7.257871 5.3698223,8.724065 0.266982,0.609967 0.797042,2.440935 0.05432,3.576419 -0.244616,0.374 -0.731716,0.819678 -1.661539,0.819678 z M 4.7002367,35.905065 c -0.7643787,0 -1.4392899,0.311193 -1.8990533,0.875741 -0.5378698,0.660355 -0.7168047,1.589323 -0.504142,2.616581 0.5424852,2.620839 5.2033136,7.703903 8.3602366,8.461129 0.241065,0.05784 0.459763,0.08729 0.649704,0.08729 0.492071,0 0.675267,-0.192678 0.770414,-0.337807 0.384852,-0.588677 0.166509,-1.868936 -0.138816,-2.566548 C 11.064497,43.044774 8.2945562,37.810193 6.8946746,36.733613 6.1899408,36.191419 5.4312426,35.905065 4.7002367,35.905065 Z"
         id="sole-right-outline"
         fill="#000000" /><path
         d="m 2.8011834,36.780806 c -0.5378698,0.660355 -0.7168047,1.589323 -0.504142,2.616581 0.5424852,2.620839 5.2033136,7.703903 8.3602366,8.461129 0.241065,0.05784 0.459763,0.08729 0.649704,0.08729 0.492071,0 0.675267,-0.192678 0.770414,-0.337807 0.384852,-0.588677 0.166509,-1.868936 -0.138816,-2.566548 -0.874083,-1.996678 -3.6440238,-7.231259 -5.0439054,-8.307839 -0.7047338,-0.542194 -1.463432,-0.828548 -2.1944379,-0.828548 -0.7643787,0 -1.4392899,0.311193 -1.8990533,0.875741"
         id="sole-right"
         fill="#ffd200" /><path
         d="m 11.303787,21.887871 v 0 c -1.160237,0 -2.0190533,-0.735226 -2.2413018,-1.918968 -0.144497,-0.77071 0.1299408,-1.621613 0.7725444,-2.395871 0.8346744,-1.004903 2.1521894,-1.734451 3.1327814,-1.734451 0.220828,0 0.423905,0.03619 0.603195,0.107871 0.652189,0.260806 1.14,0.894903 1.304734,1.696129 0.221183,1.075516 -0.155503,2.226258 -1.007929,3.077871 -0.742012,0.741967 -1.676805,1.167419 -2.564024,1.167419 z m 1.664024,-4.984774 c -0.573373,0 -1.62071,0.515935 -2.313018,1.349806 -0.252781,0.304807 -0.6603551,0.907323 -0.54497,1.520129 0.162958,0.867936 0.739171,1.050323 1.193964,1.050323 0.59787,0 1.274911,-0.31971 1.811006,-0.855871 0.598225,-0.597903 0.866627,-1.38671 0.71787,-2.110936 -0.09231,-0.44958 -0.337988,-0.794129 -0.65716,-0.921516 -0.05219,-0.02093 -0.123905,-0.03194 -0.207692,-0.03194 v 0 0 z"
         id="hand-right-outline"
         fill="#000000" /><path
         d="m 10.109823,19.773032 c 0.162958,0.867936 0.739171,1.050323 1.193964,1.050323 0.59787,0 1.274911,-0.31971 1.811006,-0.855871 0.598225,-0.597903 0.866627,-1.38671 0.71787,-2.110936 -0.09231,-0.44958 -0.337988,-0.794129 -0.65716,-0.921516 -0.05219,-0.02093 -0.123905,-0.03194 -0.207692,-0.03194 -0.573373,0 -1.62071,0.515935 -2.313018,1.349806 -0.252781,0.304807 -0.6603551,0.907323 -0.54497,1.520129"
         id="hand-right"
         fill="#ffd200" /><path
         d="m 48.891124,5.6685484 c -2.120236,0 -5.156805,-0.017742 -7.040236,-0.1703226 -0.164024,-0.013129 -0.308876,-0.013129 -0.402604,-0.00532 0.138817,0.226742 0.47929,0.6238065 1.023195,1.0769355 l 0.137042,0.1160323 c 3.699763,3.1527419 6.484615,3.8148714 8.16923,3.8152264 h 7.1e-4 c 0.601776,0 1.184024,-0.08339 1.731835,-0.247678 2.599171,-0.7792258 4.195739,-2.3891291 4.822722,-3.6356775 0.233964,-0.4659032 0.281538,-0.7717742 0.281538,-0.9154838 -0.353609,-0.035839 -1.273136,-0.053935 -2.740828,-0.053935 -0.781065,0 -1.669349,0.00426 -2.614083,0.00923 -1.074675,0.00532 -2.22284,0.011 -3.368521,0.011"
         id="ear-left"
         fill="#ff8800" /><path
         d="m 9.7015385,14.121516 c -0.049704,0.011 -0.06497,0.02803 -0.065326,0.02803 0.00497,-0.0018 0.036568,0.05784 0.1544379,0.137323 0.2158576,0.145839 1.0956206,0.555677 3.4778696,-0.08055 -0.07314,-0.552129 -0.04544,-1.240871 0.194201,-2.059129 -1.392071,0.967645 -2.962012,1.796903 -3.761183,1.974322"
         id="ear-right"
         fill="#ff8800" /><path
         d="m 42.851716,48.065387 c -1.064734,0.635871 -2.107811,1.141871 -3.108639,1.537871 -3.284734,6.00671 -10.420118,10.622097 -16.611124,10.739549 -3.197752,0.05252 -5.675148,-1.152517 -7.021065,-3.414614 -1.509941,-2.538161 -3.816213,-3.47529 -5.316568,-3.089225 -1.0054443,0.259032 -1.5816573,1.097161 -1.6224857,2.360742 -0.035858,1.108516 0.9433137,2.587483 2.6190537,3.956451 3.012781,2.461871 8.182721,4.441162 12.938698,3.314903 8.221775,-1.945935 15.60639,-8.297548 18.12213,-15.405677"
         id="tail"
         fill="#ff8800" /><path
         d="m 48.374201,14.962839 c -0.595384,-1.681581 -1.326745,-3.212 -2.173846,-4.58771 C 44.927219,9.7552258 43.495385,8.8404516 41.917278,7.4959677 L 41.789822,7.3873871 C 40.044852,5.9346774 40.285562,5.2707742 40.364379,5.0525484 40.427574,4.8776129 40.539763,4.741 40.694556,4.6388064 38.328994,3.1247097 35.613373,2.2777097 32.647101,2.1882903 25.275621,1.9650968 18.815148,5.1000968 15.361775,10.574194 c -0.944023,1.497064 -1.270296,2.857516 -0.942603,3.935161 0.23858,0.784903 0.786035,1.268903 1.182248,1.444903 0.671006,0.298774 4.940237,-1.182322 6.18071,-3.436613 0.07065,-0.127387 0.189941,-0.221064 0.330888,-0.257968 0.141657,-0.0369 0.291124,-0.0149 0.415029,0.06139 2.912663,1.791225 6.186746,0.972258 9.026272,0.06422 0.281184,-0.08906 0.579764,0.06494 0.669586,0.344904 0.04793,0.150451 0.02379,0.305516 -0.05041,0.431838 1.876686,-0.04932 3.759763,0.236678 5.419172,0.891355 0.273373,0.107871 0.407574,0.416936 0.299645,0.690516 -0.107929,0.273581 -0.417515,0.408065 -0.690888,0.299484 -4.08284,-1.610258 -9.612071,-0.821451 -12.588639,1.796903 -1.02071,0.897742 -1.464142,1.764968 -1.248284,2.441645 0.221893,0.695484 1.127219,1.242646 2.253728,1.360807 0.846745,0.088 2.135148,-0.196936 3.500236,-0.499968 2.103551,-0.466613 4.48864,-0.995677 6.611361,-0.556387 3.440237,0.711452 5.722722,2.774129 9.17716,5.896355 l 0.421065,0.380387 c 0.217989,0.196935 0.23503,0.533677 0.03799,0.751548 -0.105089,0.116742 -0.249941,0.175646 -0.395148,0.175646 -0.120711,0 -0.24,-0.044 -0.338699,-0.125968 0.340829,1.449161 0.515858,2.937 0.515858,4.442935 0,1.80542 -0.250651,3.589194 -0.740591,5.306968 0.54852,0.310129 1.009349,0.68271 1.339526,1.109936 0.18,0.232419 0.137042,0.567032 -0.0955,0.746225 -0.232189,0.179904 -0.567692,0.137323 -0.746982,-0.09545 -0.919882,-1.189775 -3.262722,-1.883129 -5.57716,-1.65 -1.685325,0.170677 -4.756331,0.97758 -6.496686,4.433355 0.06639,0.177419 0.12142,0.341709 0.161538,0.486129 0.912426,3.125419 0.696568,5.021677 0.0067,7.219548 -0.06781,0.370807 -0.199172,0.812936 -0.395858,1.273516 2.34355,0.0067 6.480355,-0.507774 10.882367,-3.537032 8.334674,-5.735613 7.601538,-23.776678 4.888757,-31.437645"
         id="left-body"
         fill="#ffd200" /><path
         d="m 57.999408,4.688129 c -0.257396,-0.064581 -0.870532,-0.1043226 -3.12568,-0.1043226 -0.782485,0 -1.672545,0.00426 -2.619409,0.00923 -1.073254,0.00532 -2.218934,0.011 -3.363195,0.011 -1.960473,0 -4.708757,-0.015258 -6.566627,-0.1383871 C 39.570888,2.3944516 36.30213,1.2334193 32.679053,1.1237742 24.953965,0.88709677 18.165444,4.1878064 14.500118,9.9471936 13.090296,11.337806 10.38071,12.879936 9.4707692,13.082548 c -0.4214201,0.09332 -0.7391716,0.376129 -0.8513609,0.755807 -0.1128994,0.38429 0.00852,0.804774 0.324142,1.124484 0.2893491,0.291677 0.8914793,0.656451 2.0960947,0.656451 0.647929,0 1.473018,-0.107871 2.514675,-0.386774 0.391242,0.886387 1.065443,1.450581 1.614674,1.69471 1.312189,0.58229 5.576095,-1.107097 7.256095,-3.439097 1.300828,0.690161 2.654201,0.953452 4.023905,0.951323 -0.949704,0.432548 -1.815976,0.964806 -2.539882,1.601741 -1.74,1.53042 -1.808165,2.782646 -1.55929,3.564 0.353255,1.109226 1.593018,1.931742 3.156924,2.096388 1.018224,0.107871 2.326864,-0.183097 3.84213,-0.519484 1.999526,-0.443194 4.266035,-0.945645 6.165088,-0.553194 2.824616,0.584065 4.788995,2.153161 7.638462,4.706226 0.617396,1.855806 0.930533,3.797484 0.930533,5.772161 0,1.650355 -0.222249,3.281194 -0.65503,4.854549 -1.226982,-0.454194 -2.715621,-0.647581 -4.207456,-0.496065 -2.946035,0.298419 -5.423432,1.844807 -6.930887,4.283613 -1.106982,-2.162742 -3.252426,-5.007129 -5.612663,-5.007129 -0.575503,0 -1.122959,0.170323 -1.626391,0.506 -2.626863,1.750065 -1.881301,4.862 -1.224142,7.607387 0.17645,0.73629 0.342959,1.431774 0.442722,2.080065 0.121065,0.787742 0.08911,1.746871 0.05858,2.674064 -0.06106,1.836645 -0.12426,3.735387 0.958935,4.854903 0.564497,0.583355 1.373965,0.879291 2.406036,0.879291 2.134438,0 3.514438,-1.111355 4.341657,-2.353645 0.18852,0.0071 0.388047,0.01206 0.606035,0.01206 1.373609,0 3.309941,-0.172097 5.538817,-0.851613 -3.330533,5.172839 -9.59574,9.023903 -15.067456,9.127871 -1.962249,0.04258 -4.621775,-0.434677 -6.085562,-2.894774 -1.777633,-2.988097 -4.61503,-4.061484 -6.497397,-3.57571 -1.4826031,0.381452 -2.3648517,1.605645 -2.4213014,3.357129 -0.047219,1.459097 1.0498225,3.214129 3.0092304,4.814807 2.576095,2.104548 6.638344,3.876968 10.780119,3.876968 1.028165,0 2.061656,-0.109291 3.078461,-0.349872 9.033018,-2.138612 17.101775,-9.41458 19.273846,-17.345935 4.885207,-3.488419 6.440237,-10.422323 6.880474,-15.655839 0.560947,-6.671677 -0.475385,-13.294387 -1.751361,-16.897774 -0.450888,-1.273516 -0.980592,-2.460097 -1.572426,-3.568968 1.186509,0.397775 2.185917,0.526936 2.971952,0.526936 h 7.1e-4 c 0.705444,0 1.390651,-0.09865 2.03787,-0.292387 C 56.970888,10.027387 58.709112,6.9573226 58.67929,5.6660645 58.667574,5.1572258 58.413018,4.7913871 57.999408,4.688129 Z m -44.730887,9.518194 c -2.382249,0.636225 -3.262012,0.226387 -3.4778701,0.08055 -0.1178698,-0.07948 -0.1494675,-0.139097 -0.1544379,-0.137323 3.55e-4,0 0.015621,-0.01703 0.065326,-0.02803 0.799172,-0.177419 2.369113,-1.006677 3.761184,-1.974322 -0.239645,0.818258 -0.267337,1.507 -0.194201,2.059129 v 0 0 z m 18.362485,34.074806 c -0.0096,0.0291 -0.01704,0.06103 -0.02237,0.09155 -0.02592,0.144775 -0.669586,3.551936 -3.915976,3.551936 -0.641539,0 -1.094557,-0.146194 -1.385326,-0.446742 -0.664615,-0.686613 -0.611716,-2.280194 -0.560591,-3.820903 0.03302,-0.992129 0.06745,-2.018678 -0.0742,-2.937355 -0.108639,-0.706129 -0.289704,-1.462645 -0.464733,-2.193968 -0.708284,-2.956871 -1.046628,-4.978742 0.630177,-6.096484 0.270178,-0.179903 0.544616,-0.267548 0.838935,-0.267548 1.91503,0 4.422249,3.774064 4.949467,5.671742 0.824024,2.823806 0.637634,4.444355 0.0046,6.447774 v 0 0 z m -6.90142,15.189935 C 19.973609,64.597323 14.803669,62.618032 11.790888,60.156161 10.115148,58.787193 9.1359763,57.308226 9.1718343,56.19971 9.2126627,54.936129 9.7888757,54.098 10.79432,53.838968 c 1.500355,-0.386065 3.806627,0.551064 5.316568,3.089225 1.345917,2.262097 3.823313,3.46713 7.021065,3.414614 6.191006,-0.117452 13.32639,-4.732839 16.611124,-10.739549 1.000828,-0.396 2.043905,-0.902 3.108639,-1.537871 -2.51574,7.108129 -9.900355,13.459742 -18.12213,15.405677 z M 48.374201,14.962839 c 2.712781,7.660967 3.445917,25.702032 -4.888757,31.437645 -4.402012,3.029258 -8.538817,3.543774 -10.882367,3.537032 0.196686,-0.46058 0.328047,-0.902709 0.395858,-1.273516 0.689822,-2.197871 0.90568,-4.094129 -0.0067,-7.219548 -0.04012,-0.14442 -0.09515,-0.30871 -0.161538,-0.486129 1.740355,-3.455775 4.811361,-4.262678 6.496686,-4.433355 2.314438,-0.233129 4.657278,0.460225 5.57716,1.65 0.17929,0.232774 0.514793,0.275355 0.746982,0.09545 0.232545,-0.179193 0.275503,-0.513806 0.0955,-0.746225 -0.330177,-0.427226 -0.791006,-0.799807 -1.339526,-1.109936 0.48994,-1.717774 0.740591,-3.501548 0.740591,-5.306968 0,-1.505935 -0.175029,-2.993774 -0.515858,-4.442935 0.0987,0.08197 0.217988,0.125968 0.338699,0.125968 0.145207,0 0.290059,-0.0589 0.395148,-0.175646 0.197041,-0.217871 0.18,-0.554613 -0.03799,-0.751548 l -0.421065,-0.380387 c -3.454438,-3.122226 -5.736923,-5.184903 -9.17716,-5.896355 -2.122721,-0.43929 -4.50781,0.08977 -6.611361,0.556387 -1.365088,0.303032 -2.653491,0.587968 -3.500236,0.499968 -1.126509,-0.118161 -2.031835,-0.665323 -2.253728,-1.360807 -0.215858,-0.676677 0.227574,-1.543903 1.248284,-2.441645 2.976568,-2.618354 8.505799,-3.407161 12.588639,-1.796903 0.273373,0.108581 0.582959,-0.0259 0.690888,-0.299484 0.107929,-0.27358 -0.02627,-0.582645 -0.299645,-0.690516 -1.659409,-0.654677 -3.542486,-0.940677 -5.419172,-0.891355 0.0742,-0.126322 0.09834,-0.281387 0.05041,-0.431838 -0.08982,-0.279968 -0.388402,-0.433968 -0.669586,-0.344904 -2.839526,0.908033 -6.113609,1.727 -9.026272,-0.06422 -0.123905,-0.07629 -0.273372,-0.09829 -0.415029,-0.06139 -0.140947,0.0369 -0.260237,0.130581 -0.330888,0.257968 -1.240473,2.254291 -5.509704,3.735387 -6.18071,3.436613 -0.396213,-0.176 -0.943668,-0.66 -1.182248,-1.444903 -0.327693,-1.077645 -0.0014,-2.438097 0.942603,-3.935161 3.453373,-5.4740972 9.913846,-8.6090972 17.285326,-8.3859037 2.966272,0.089419 5.681893,0.9364194 8.047455,2.4505161 -0.154793,0.1021936 -0.266982,0.2388065 -0.330177,0.413742 -0.07882,0.2182258 -0.319527,0.882129 1.425443,2.3348387 l 0.127456,0.1085806 c 1.578107,1.3444839 3.009941,2.2592581 4.283077,2.8791613 0.847101,1.37571 1.578462,2.906129 2.173846,4.58771 v 0 0 z m 8.958817,-8.3450971 c -0.626983,1.2465484 -2.223551,2.8564517 -4.822722,3.6356771 -0.547811,0.164291 -1.130059,0.247678 -1.731835,0.247678 h -7.1e-4 C 49.093136,10.500742 46.308284,9.8386129 42.608521,6.685871 L 42.471479,6.5698387 c -0.543905,-0.453129 -0.884378,-0.8501935 -1.023195,-1.0769355 0.09373,-0.00781 0.23858,-0.00781 0.402604,0.00532 1.883431,0.1525806 4.92,0.1703226 7.040236,0.1703226 1.145681,0 2.293846,-0.00568 3.368521,-0.011 0.944734,-0.00497 1.833018,-0.00923 2.614083,-0.00923 1.467692,0 2.387219,0.018097 2.740828,0.053935 0,0.1437096 -0.04757,0.4495806 -0.281538,0.9154838 v 0 0 z"
         id="left-body-outline"
         fill="#000000" /><path
         d="m 21.30213,9.6988064 c -0.846745,0.6348066 -0.591479,1.4197096 0.35503,1.5378706 0.946864,0.118162 1.02071,0.180968 1.893728,-0.473354 0.946508,-0.709678 1.065088,-1.8927101 0,-1.774194 -1.065089,0.1185162 -1.775148,0.3548387 -2.248758,0.7096774"
         id="nose"
         fill="#000000" /><path
         d="m 18.816923,10.172161 c 0,0.587968 -0.476805,1.064516 -1.065089,1.064516 -0.587929,0 -1.065088,-0.476548 -1.065088,-1.064516 0,-0.5879674 0.477159,-1.0645158 1.065088,-1.0645158 0.588284,0 1.065089,0.4765484 1.065089,1.0645158"
         id="eye-left"
         fill="#000000" /><path
         d="m 31.124734,7.2152903 c 0,0.5879678 -0.476805,1.0645162 -1.065089,1.0645162 -0.588284,0 -1.065089,-0.4765484 -1.065089,-1.0645162 0,-0.5879677 0.476805,-1.0645161 1.065089,-1.0645161 0.588284,0 1.065089,0.4765484 1.065089,1.0645161"
         id="eye-right"
         fill="#000000" /></g><g
       id="A"
       transform="matrix(0.03304309,0,0,0.03304309,6.2277868,17.58937)">
	
	<rect
   x="139.201"
   y="558.56097"
   width="423.263"
   height="21.705"
   id="rect7" />
	<rect
   x="155.897"
   y="516.81799"
   width="390.70401"
   height="30.055"
   id="rect8" />
	<rect
   x="153.39301"
   y="174.535"
   width="388.617"
   height="41.742001"
   id="rect9" />
	<polygon
   points="539.506,162.012 551.193,149.072 347.701,101.486 144.21,149.072 155.897,162.012 347.701,162.012 "
   id="polygon9" />
	
	<path
   d="m 209.446,348.42 c -0.335,-20.5 -0.866,-41.001 -1.669,-61.487 -0.756,-19.302 -2,-38.585 -2.939,-57.881 -0.081,-1.666 -0.787,-2.026 -2.169,-2.328 -5.693,-1.241 -11.416,-1.824 -17.163,-1.833 -5.747,0.009 -11.47,0.592 -17.163,1.833 -1.382,0.301 -2.088,0.662 -2.169,2.328 -0.939,19.296 -2.183,38.579 -2.939,57.881 -0.803,20.486 -1.335,40.987 -1.669,61.487 -0.237,14.528 -0.09,29.067 0.14,43.599 0.254,16.121 0.612,32.246 1.265,48.355 0.7,17.288 1.782,34.562 2.731,51.839 0.182,3.311 0.521,6.613 0.78,9.831 6.379,1.66 12.704,2.619 19.025,2.698 6.321,-0.079 12.645,-1.038 19.025,-2.698 0.259,-3.218 0.597,-6.521 0.779,-9.831 0.949,-17.277 2.031,-34.551 2.731,-51.839 0.653,-16.109 1.011,-32.234 1.265,-48.355 0.229,-14.532 0.377,-29.071 0.139,-43.599 z"
   id="path17" />
	<path
   d="m 315.257,348.42 c -0.335,-20.5 -0.867,-41.001 -1.67,-61.487 -0.757,-19.302 -2.001,-38.585 -2.939,-57.881 -0.081,-1.666 -0.786,-2.026 -2.169,-2.328 -5.692,-1.241 -11.416,-1.824 -17.162,-1.833 -5.747,0.009 -11.47,0.592 -17.163,1.833 -1.382,0.301 -2.088,0.662 -2.169,2.328 -0.938,19.296 -2.183,38.579 -2.939,57.881 -0.803,20.486 -1.335,40.987 -1.669,61.487 -0.237,14.528 -0.09,29.067 0.139,43.599 0.255,16.121 0.612,32.246 1.265,48.355 0.701,17.288 1.782,34.562 2.731,51.839 0.182,3.311 0.521,6.613 0.779,9.831 6.38,1.66 12.705,2.619 19.025,2.698 6.321,-0.079 12.645,-1.038 19.025,-2.698 0.258,-3.218 0.597,-6.521 0.779,-9.831 0.948,-17.277 2.03,-34.551 2.73,-51.839 0.653,-16.109 1.011,-32.234 1.266,-48.355 0.231,-14.532 0.378,-29.071 0.141,-43.599 z"
   id="path18" />
	<path
   d="m 437.972,348.42 c -0.335,-20.5 -0.866,-41.001 -1.67,-61.487 -0.756,-19.302 -2,-38.585 -2.938,-57.881 -0.082,-1.666 -0.787,-2.026 -2.17,-2.328 -5.692,-1.241 -11.415,-1.824 -17.162,-1.833 -5.747,0.009 -11.47,0.592 -17.163,1.833 -1.382,0.301 -2.088,0.662 -2.169,2.328 -0.938,19.296 -2.183,38.579 -2.938,57.881 -0.804,20.486 -1.335,40.987 -1.67,61.487 -0.237,14.528 -0.09,29.067 0.14,43.599 0.255,16.121 0.612,32.246 1.265,48.355 0.701,17.288 1.782,34.562 2.731,51.839 0.183,3.311 0.521,6.613 0.779,9.831 6.38,1.66 12.704,2.619 19.025,2.698 6.321,-0.079 12.645,-1.038 19.025,-2.698 0.258,-3.218 0.597,-6.521 0.779,-9.831 0.949,-17.277 2.03,-34.551 2.731,-51.839 0.652,-16.109 1.01,-32.234 1.265,-48.355 0.23,-14.532 0.377,-29.071 0.14,-43.599 z"
   id="path19" />
	<path
   d="m 541.277,348.42 c -0.335,-20.5 -0.866,-41.001 -1.669,-61.487 -0.757,-19.302 -2.001,-38.585 -2.939,-57.881 -0.082,-1.666 -0.787,-2.026 -2.17,-2.328 -5.691,-1.241 -11.415,-1.824 -17.162,-1.833 -5.746,0.009 -11.47,0.592 -17.162,1.833 -1.383,0.301 -2.088,0.662 -2.169,2.328 -0.939,19.296 -2.184,38.579 -2.939,57.881 -0.803,20.486 -1.335,40.987 -1.67,61.487 -0.237,14.528 -0.09,29.067 0.14,43.599 0.255,16.121 0.612,32.246 1.266,48.355 0.7,17.288 1.782,34.562 2.73,51.839 0.183,3.311 0.521,6.613 0.779,9.831 6.381,1.66 12.705,2.619 19.025,2.698 6.321,-0.079 12.646,-1.038 19.025,-2.698 0.259,-3.218 0.597,-6.521 0.779,-9.831 0.949,-17.277 2.031,-34.551 2.731,-51.839 0.653,-16.109 1.01,-32.234 1.265,-48.355 0.23,-14.532 0.378,-29.071 0.14,-43.599 z"
   id="path20" />
</g></g></svg>
